<?xml version="1.0" encoding="UTF-8" standalone="no"?>
<!-- Generator: Adobe Illustrator 27.5.0, SVG Export Plug-In . SVG Version: 6.00 Build 0)  -->

<svg
   version="1.1"
   x="0px"
   y="0px"
   viewBox="0 0 266.66699 153.23399"
   xml:space="preserve"
   id="svg9193"
   sodipodi:docname="bg_pattern.svg"
   width="266.66699"
   height="153.23399"
   inkscape:version="1.2.2 (b0a8486541, 2022-12-01)"
   xmlns:inkscape="http://www.inkscape.org/namespaces/inkscape"
   xmlns:sodipodi="http://sodipodi.sourceforge.net/DTD/sodipodi-0.dtd"
   xmlns="http://www.w3.org/2000/svg"
   xmlns:svg="http://www.w3.org/2000/svg"><defs
   id="defs9197">
	
	
	
	
	
	
	
	
	
	
	
	
	
	
	
</defs><sodipodi:namedview
   id="namedview9195"
   pagecolor="#ffffff"
   bordercolor="#000000"
   borderopacity="0.25"
   inkscape:showpageshadow="2"
   inkscape:pageopacity="0.0"
   inkscape:pagecheckerboard="0"
   inkscape:deskcolor="#d1d1d1"
   showgrid="false"
   inkscape:zoom="1.0941362"
   inkscape:cx="313.48931"
   inkscape:cy="282.41457"
   inkscape:window-width="1920"
   inkscape:window-height="1048"
   inkscape:window-x="1920"
   inkscape:window-y="0"
   inkscape:window-maximized="1"
   inkscape:current-layer="svg9193" />
<g
   id="bkg">
</g>
<g
   id="g7258">
		<polygon
   style="fill:#d2b885"
   points="266.667,96.196 266.667,92.177 264.393,90.865 262.653,93.879 "
   id="polygon7122" />
		<polygon
   style="fill:#d2b885"
   points="266.667,105.965 264.339,104.621 262.599,107.635 266.667,109.984 "
   id="polygon7124" />
		<polygon
   style="fill:#d2b885"
   points="266.667,119.752 264.339,118.409 262.599,121.423 266.667,123.771 "
   id="polygon7126" />
		<polygon
   style="fill:#d2b885"
   points="266.667,133.54 264.339,132.196 262.599,135.21 266.667,137.559 "
   id="polygon7128" />
		<polygon
   style="fill:#d2b885"
   points="266.667,146.624 255.218,153.234 262.18,153.234 266.667,150.643 "
   id="polygon7130" />
		<rect
   x="182.82201"
   y="88.236"
   style="fill:#d2b885"
   width="3.4809999"
   height="58.209999"
   id="rect7132" />
		<rect
   x="194.76199"
   y="81.271004"
   style="fill:#d2b885"
   width="3.4809999"
   height="71.962997"
   id="rect7134" />
		<rect
   x="206.703"
   y="74.554001"
   style="fill:#d2b885"
   width="3.4809999"
   height="78.68"
   id="rect7136" />
		<rect
   x="218.64301"
   y="67.464996"
   style="fill:#d2b885"
   width="3.4809999"
   height="85.768997"
   id="rect7138" />
		<rect
   x="230.58299"
   y="74.554001"
   style="fill:#d2b885"
   width="3.4809999"
   height="78.68"
   id="rect7140" />
		<rect
   x="242.524"
   y="81.271004"
   style="fill:#d2b885"
   width="3.4809999"
   height="71.962997"
   id="rect7142" />
		<rect
   x="254.464"
   y="88.236"
   style="fill:#d2b885"
   width="3.4809999"
   height="58.209999"
   id="rect7144" />
		<polygon
   style="fill:#d2b885"
   points="178.024,153.234 166.875,146.797 165.134,149.811 171.063,153.234 "
   id="polygon7146" />
		<rect
   x="73.369003"
   y="151.17101"
   style="fill:#d2b885"
   width="3.4809999"
   height="2.063"
   id="rect7148" />
		<rect
   x="85.309998"
   y="144.082"
   style="fill:#d2b885"
   width="3.4809999"
   height="9.1520004"
   id="rect7150" />
		<rect
   x="97.25"
   y="151.17101"
   style="fill:#d2b885"
   width="3.4809999"
   height="2.063"
   id="rect7152" />
		
			<rect
   x="56.082001"
   y="57.166"
   transform="matrix(0.5,-0.866,0.866,0.5,-45.7472,93.1796)"
   style="fill:#d2b885"
   width="3.4809999"
   height="58.084999"
   id="rect7154" />
		
			<rect
   x="50.050999"
   y="60.506001"
   transform="matrix(0.5,-0.866,0.866,0.5,-57.6876,93.1088)"
   style="fill:#d2b885"
   width="3.4809999"
   height="72.014999"
   id="rect7156" />
		
			<rect
   x="44.125999"
   y="64.031998"
   transform="matrix(0.5,-0.866,0.866,0.5,-69.6278,93.1613)"
   style="fill:#d2b885"
   width="3.4809999"
   height="85.696999"
   id="rect7158" />
		<polygon
   style="fill:#d2b885"
   points="0,96.196 82.104,143.599 83.844,140.585 0,92.177 "
   id="polygon7160" />
		<polygon
   style="fill:#d2b885"
   points="0,109.984 70.364,150.608 72.104,147.594 0,105.965 "
   id="polygon7162" />
		<polygon
   style="fill:#d2b885"
   points="57.992,153.234 0,119.752 0,123.771 51.031,153.234 "
   id="polygon7164" />
		<polygon
   style="fill:#d2b885"
   points="34.111,153.234 0,133.54 0,137.559 27.15,153.234 "
   id="polygon7166" />
		<polygon
   style="fill:#d2b885"
   points="0,150.643 4.771,147.889 3.03,144.875 0,146.624 "
   id="polygon7168" />
		<polygon
   style="fill:#d2b885"
   points="12.432,153.234 15.939,153.234 15.062,151.715 "
   id="polygon7170" />
		<polygon
   style="fill:#d2b885"
   points="255.218,0 219.513,20.615 221.254,23.629 262.18,0 "
   id="polygon7172" />
		<polygon
   style="fill:#d2b885"
   points="266.667,7.178 219.513,34.402 221.254,37.416 266.667,11.197 "
   id="polygon7174" />
		<polygon
   style="fill:#d2b885"
   points="266.667,20.965 219.513,48.189 221.254,51.204 266.667,24.984 "
   id="polygon7176" />
		<polygon
   style="fill:#d2b885"
   points="266.667,34.753 219.513,61.977 221.254,64.991 266.667,38.772 "
   id="polygon7178" />
		<polygon
   style="fill:#d2b885"
   points="266.667,48.54 231.254,68.986 232.994,72 266.667,52.559 "
   id="polygon7180" />
		<polygon
   style="fill:#d2b885"
   points="266.667,62.328 243.102,75.933 244.843,78.947 266.667,66.347 "
   id="polygon7182" />
		<polygon
   style="fill:#d2b885"
   points="266.667,76.115 255.166,82.755 256.906,85.769 266.667,80.134 "
   id="polygon7184" />
		<rect
   x="194.76199"
   style="fill:#d2b885"
   width="3.4809999"
   height="0.177"
   id="rect7186"
   y="0" />
		<rect
   x="206.703"
   style="fill:#d2b885"
   width="3.4809999"
   height="6.895"
   id="rect7188"
   y="0" />
		<rect
   x="218.64301"
   style="fill:#d2b885"
   width="3.4809999"
   height="13.734"
   id="rect7190"
   y="0" />
		<rect
   x="230.58299"
   style="fill:#d2b885"
   width="3.4809999"
   height="6.895"
   id="rect7192"
   y="0" />
		<rect
   x="242.524"
   style="fill:#d2b885"
   width="3.4809999"
   height="0.177"
   id="rect7194"
   y="0" />
		<polygon
   style="fill:#d2b885"
   points="171.063,0 215.438,25.62 217.178,22.605 178.024,0 "
   id="polygon7196" />
		
			<rect
   x="183.384"
   y="-16.111"
   transform="matrix(0.5,-0.866,0.866,0.5,75.3314,170.2705)"
   style="fill:#d2b885"
   width="3.4809999"
   height="72.014999"
   id="rect7198" />
		
			<rect
   x="177.459"
   y="-12.585"
   transform="matrix(0.5,-0.866,0.866,0.5,63.3907,170.3229)"
   style="fill:#d2b885"
   width="3.4809999"
   height="85.696999"
   id="rect7200" />
		
			<rect
   x="171.508"
   y="-9.1049995"
   transform="matrix(0.5,-0.866,0.866,0.5,51.4506,170.3453)"
   style="fill:#d2b885"
   width="3.4809999"
   height="99.440002"
   id="rect7202" />
		
			<rect
   x="165.61099"
   y="8.0249996"
   transform="matrix(0.5,-0.866,0.866,0.5,39.5106,170.4297)"
   style="fill:#d2b885"
   width="3.4809999"
   height="85.945999"
   id="rect7204" />
		
			<rect
   x="159.61099"
   y="25.277"
   transform="matrix(0.5,-0.866,0.866,0.5,27.5704,170.3954)"
   style="fill:#d2b885"
   width="3.4809999"
   height="72.088997"
   id="rect7206" />
		
			<rect
   x="153.595"
   y="42.536999"
   transform="matrix(0.5,-0.866,0.866,0.5,15.6296,170.3424)"
   style="fill:#d2b885"
   width="3.4809999"
   height="58.195999"
   id="rect7208" />
		
			<rect
   x="83.167999"
   y="82.511002"
   transform="matrix(0.866,-0.5,0.5,0.866,-27.1016,67.3583)"
   style="fill:#d2b885"
   width="57.946999"
   height="3.4809999"
   id="rect7210" />
		
			<rect
   x="82.237999"
   y="92.824997"
   transform="matrix(0.866,-0.5,0.5,0.866,-31.4527,71.7483)"
   style="fill:#d2b885"
   width="71.841003"
   height="3.4809999"
   id="rect7212" />
		
			<rect
   x="81.308998"
   y="103.149"
   transform="matrix(0.866,-0.5,0.5,0.866,-35.8109,76.1335)"
   style="fill:#d2b885"
   width="85.696999"
   height="3.4809999"
   id="rect7214" />
		
			<rect
   x="80.389"
   y="113.501"
   transform="matrix(0.866,-0.5,0.5,0.866,-40.1892,80.4939)"
   style="fill:#d2b885"
   width="99.440002"
   height="3.4809999"
   id="rect7216" />
		
			<rect
   x="93.033997"
   y="123.883"
   transform="matrix(0.866,-0.5,0.5,0.866,-44.591,84.8358)"
   style="fill:#d2b885"
   width="85.945"
   height="3.4809999"
   id="rect7218" />
		<polygon
   style="fill:#d2b885"
   points="115.545,153.234 174.092,119.432 172.352,116.418 109.769,152.55 110.164,153.234 "
   id="polygon7220" />
		<polygon
   style="fill:#d2b885"
   points="139.425,153.234 174.092,133.219 172.352,130.205 132.464,153.234 "
   id="polygon7222" />
		<rect
   x="49.488998"
   y="11.619"
   style="fill:#d2b885"
   width="3.4809999"
   height="58.209999"
   id="rect7224" />
		<rect
   x="61.429001"
   y="4.6539998"
   style="fill:#d2b885"
   width="3.4809999"
   height="72.139999"
   id="rect7226" />
		<rect
   x="73.369003"
   style="fill:#d2b885"
   width="3.4809999"
   height="83.511002"
   id="rect7228"
   y="0" />
		<rect
   x="85.309998"
   style="fill:#d2b885"
   width="3.4809999"
   height="90.350998"
   id="rect7230"
   y="0" />
		<rect
   x="97.25"
   style="fill:#d2b885"
   width="3.4809999"
   height="83.511002"
   id="rect7232"
   y="0" />
		<rect
   x="109.19"
   y="4.6539998"
   style="fill:#d2b885"
   width="3.4809999"
   height="72.139999"
   id="rect7234" />
		<rect
   x="121.131"
   y="11.619"
   style="fill:#d2b885"
   width="3.4809999"
   height="58.209999"
   id="rect7236" />
		<polygon
   style="fill:#d2b885"
   points="51.031,0 58.363,4.234 60.104,1.219 57.992,0 "
   id="polygon7238" />
		<polygon
   style="fill:#d2b885"
   points="27.15,0 46.332,11.075 48.072,8.061 34.111,0 "
   id="polygon7240" />
		<polygon
   style="fill:#d2b885"
   points="0,11.197 16.803,1.496 15.939,0 12.432,0 0,7.178 "
   id="polygon7242" />
		<polygon
   style="fill:#d2b885"
   points="0,24.984 28.803,8.355 27.062,5.341 0,20.965 "
   id="polygon7244" />
		<polygon
   style="fill:#d2b885"
   points="0,38.772 40.705,15.271 38.964,12.257 0,34.753 "
   id="polygon7246" />
		<polygon
   style="fill:#d2b885"
   points="0,52.559 40.759,29.028 39.018,26.013 0,48.54 "
   id="polygon7248" />
		<polygon
   style="fill:#d2b885"
   points="0,66.347 40.759,42.815 39.018,39.801 0,62.328 "
   id="polygon7250" />
		<polygon
   style="fill:#d2b885"
   points="0,80.134 40.759,56.602 39.018,53.588 0,76.115 "
   id="polygon7252" />
		<polygon
   style="fill:#d2b885"
   points="115.545,0 110.164,0 111.509,2.33 "
   id="polygon7254" />
		<polygon
   style="fill:#d2b885"
   points="132.464,0 121.833,6.138 123.573,9.152 139.425,0 "
   id="polygon7256" />
	</g>
</svg>
